<?xml version="1.0" encoding="utf-8"?>
<!-- Generator: Adobe Illustrator 24.1.0, SVG Export Plug-In . SVG Version: 6.00 Build 0)  -->
<svg version="1.1" id="Laag_1" xmlns="http://www.w3.org/2000/svg" xmlns:xlink="http://www.w3.org/1999/xlink" x="0px" y="0px"
	 viewBox="0 0 198.4 198.4" style="enable-background:new 0 0 198.4 198.4;" xml:space="preserve">
<style type="text/css">
	.st0{clip-path:url(#SVGID_2_);fill:#679436;}
	.st1{opacity:0.3;clip-path:url(#SVGID_2_);fill:#1C4C3C;}
	.st2{opacity:0.1;clip-path:url(#SVGID_2_);}
	.st3{fill:#679436;}
	.st4{fill:#1C4C3C;}
	.st5{clip-path:url(#SVGID_2_);fill:#1C4C3C;}
	.st6{opacity:0.5;clip-path:url(#SVGID_2_);}
	.st7{fill:#ffffff;}
</style>
<g>
	<defs>
		<path id="SVGID_1_" d="M188,0c-21.5,1.3-55.7,6.6-90.4,27c-23,13.5-54.7,32-63.7,64.8c-6.3,23,4.4,31.5-4.2,57.4
			C19.2,180.9,0.1,197.9,0,198c0.8-0.7,5.2-0.3,6.2-0.3c6.3-0.4,12.6-1.1,18.9-2c14.9-2,29-5.6,43.4-9.9
			c29.4-8.6,82.5-32.5,108-83.2C192.4,71.2,188,0,188,0z"/>
	</defs>
	<clipPath id="SVGID_2_">
		<use xlink:href="#SVGID_1_"  style="overflow:visible;"/>
	</clipPath>
	<path class="st0" d="M188,0c-21.5,1.3-55.7,6.6-90.4,27c-23,13.5-54.7,32-63.7,64.8c-6.3,23,4.4,31.5-4.2,57.4
		C19.2,180.9,0.1,197.9,0,198c0.8-0.7,5.2-0.3,6.2-0.3c6.3-0.4,12.6-1.1,18.9-2c14.9-2,29-5.6,43.4-9.9c29.4-8.6,82.5-32.5,108-83.2
		C192.4,71.2,188,0,188,0z"/>
	<path class="st1" d="M-29.2,235.4c29-31.2,49.9-83.6,75.1-121.3c23.7-35.4,42-12.4,80.4-71.6c23.5-36.2,28.3-78,26.9-95
		C148.9-102.3,43.5-126-61.2-82.2c-125.5,52.4-172.5,250.2-112,316.7c24.1,26.4,43.5,48.8,86.6,37.1
		C-55.4,263-37.1,243.8-29.2,235.4z"/>
	<g class="st2">
		<path class="st3" d="M-29.2,235.4c29-31.2,49.9-83.6,75.1-121.3c23.7-35.4,42-12.4,80.4-71.6c23.5-36.2,28.3-78,26.9-95
			C148.9-102.3,43.5-126-61.2-82.2c-125.5,52.4-172.5,250.2-112,316.7c24.1,26.4,43.5,48.8,86.6,37.1
			C-55.4,263-37.1,243.8-29.2,235.4z"/>
		<path class="st4" d="M-31.4,233.4c7.9-8.5,14.6-18.1,20.7-28.1c6-10.1,11.4-20.6,16.4-31.2c5.1-10.7,9.8-21.6,14.6-32.6
			c4.9-11,9.8-22,15.5-33.1c0.4-0.7,0.7-1.5,1.1-2.2l1.1-2.3c0.8-1.5,1.6-3.1,2.5-4.7c1.8-3.1,3.8-6.2,6.2-9.2
			c2.4-3,5.2-5.9,8.1-8.5c2.9-2.6,5.9-4.9,8.7-6.9c5.6-3.9,9.7-7,12.9-10.1c3.2-3.1,6-6.2,8.8-9.7c2.8-3.5,5.5-7.4,8.3-11.4
			c1.4-2,2.8-4.2,4.2-6.3c1.4-2.2,2.8-4.3,4.2-6.6c0.7-1.1,1.5-2.3,2.1-3.3c0.6-1,1.3-2.1,1.9-3.1c0.6-1.1,1.3-2.1,1.9-3.2
			c0.6-1.1,1.2-2.1,1.8-3.2c1.2-2.1,2.3-4.4,3.4-6.6c0.6-1.1,1.1-2.2,1.7-3.4l1.6-3.4c4.1-9.2,7.8-18.8,10.7-28.7
			c0.7-2.5,1.4-5,2-7.4c0.6-2.5,1.2-5,1.7-7.4c0.5-2.4,0.9-4.9,1.3-7.2c0.2-1.2,0.3-2.2,0.4-3.3l0.1-0.7l0-0.3l0-0.2
			c0-0.3,0.2-0.7,0.2-1c0.4-2.6,0.2-5.7-1.3-9.1c-1.4-3.4-3.9-7-7.2-10.4c-3.3-3.4-7.3-6.5-11.8-9.2c-4.5-2.8-9.4-5.1-14.5-7.1
			c-5.1-2-10.5-3.6-15.9-4.9c-5.5-1.2-11.1-2.1-16.7-2.7c-11.3-1.1-22.8-1-34.1,0.2C19.8-94,8.5-91.8-2.4-88.6
			c-11,3.2-21.7,7.3-31.9,12.1c-5.1,2.4-10.2,5-15.1,7.8c-2.4,1.4-5,2.8-7.2,4.1c-2.3,1.4-4.5,2.8-6.7,4.3c-8.8,5.9-17,12.7-24.6,20
			c-1.9,1.8-3.8,3.7-5.6,5.6c-1.8,1.9-3.6,3.8-5.4,5.8c-3.5,3.9-6.9,8-10.2,12.1c-6.5,8.3-12.7,16.9-18.2,26
			c-11,18.1-19.6,37.9-26,58.2c-6.3,20.3-10.7,41.2-12.8,61.7c-1.1,10.3-1.5,20.5-1.3,30.4c0.1,2.5,0.2,4.9,0.4,7.4
			c0.1,2.4,0.4,4.9,0.6,7.2c0.6,4.8,1.3,9.4,2.3,13.9c2,8.9,4.8,17,8.5,23.9c0.5,0.9,0.9,1.7,1.4,2.5c0.2,0.4,0.5,0.8,0.7,1.2
			l0.4,0.6c0.1,0.2,0.4,0.6,0.6,0.9c1.8,2.4,3.4,4.9,5,7.2c3.2,4.7,6.2,9.2,9.1,13.4c2.9,4.1,5.8,7.9,8.8,11.2
			c3,3.3,6.2,6.1,9.9,8.4c1.9,1.1,3.9,2.1,6,2.9c2.2,0.8,4.5,1.5,6.9,2c4.9,1,10.2,1.3,15.7,0.9c11-0.7,22.1-3.6,32.3-8.7
			c5.1-2.6,10-5.6,14.5-9.2C-39.6,241.6-35.5,237.6-31.4,233.4z M-27,237.4c-8,8.9-16.9,17.4-26.8,24.8
			c-9.9,7.4-20.8,13.9-32.8,18.9c-6,2.5-12.4,4.7-19.4,6c-3.5,0.7-7.1,1.1-10.8,1.3c-3.7,0.2-7.6,0-11.4-0.4
			c-3.8-0.4-7.7-1.2-11.5-2.3c-3.8-1-7.4-2.4-10.9-3.9c-7-3.1-13.3-6.9-19.1-10.8c-5.7-3.9-10.9-8-15.7-12c-2.4-2-4.8-4-7-5.9
			c-0.3-0.3-0.5-0.4-0.9-0.8l-1.1-1.1c-0.7-0.7-1.4-1.4-2.2-2.2c-1.4-1.5-2.7-3-4.1-4.5c-5.2-6.1-9.5-12.7-13.1-19.4
			c-3.6-6.7-6.4-13.7-8.7-20.6c-2.3-6.9-4.1-13.9-5.4-20.8c-0.7-3.5-1.3-6.9-1.7-10.4c-0.5-3.5-0.8-6.9-1.1-10.3
			c-1.2-13.7-0.9-27.3,0.3-40.6c2.6-26.6,9.3-52.2,19.2-76.4c9.8-24.2,22.7-47.2,38.3-68.2c7.8-10.5,16.4-20.6,25.9-29.7
			c4.8-4.6,9.7-9,14.9-13.1c2.6-2.1,5.2-4.1,7.9-6c2.7-1.9,5.5-3.8,8.2-5.6c11.2-7.2,23.1-13.2,35.4-17.9c3.1-1.2,6.2-2.2,9.3-3.3
			c3.2-1,6.2-1.8,9.2-2.6c6.1-1.6,12.2-3,18.3-4.3c6.1-1.3,12.2-2.4,18.4-3.5c6.1-1,12.3-1.9,18.4-2.6c12.2-1.5,24.5-2.6,36.7-3.1
			c12.3-0.6,24.5-0.5,36.9,0.1c12.3,0.7,24.8,1.9,37.3,4.4c3.1,0.7,6.3,1.3,9.5,2.1c3.2,0.8,6.3,1.7,9.5,2.7c3.2,1,6.4,2.2,9.6,3.5
			c3.2,1.3,6.3,2.9,9.5,4.7c3.2,1.8,6.3,3.8,9.3,6.2c3,2.4,6,5,8.8,8.1c5.6,6.1,10.2,14.2,12.6,23.3c0.3,1.1,0.5,2.3,0.8,3.4
			l0.2,0.9l0.1,0.8l0.2,1.5c0.3,1.9,0.5,3.8,0.7,5.6c0.4,3.6,0.5,7.1,0.6,10.6c0.1,6.9-0.2,13.7-0.9,20.4c-1.4,13.4-4.4,26.6-9,39.5
			c-1.2,3.2-2.4,6.4-3.8,9.6c-1.4,3.1-2.8,6.3-4.4,9.3c-0.8,1.5-1.6,3.1-2.5,4.6c-0.8,1.5-1.7,3-2.6,4.5c-0.9,1.5-1.8,3-2.8,4.4
			c-0.5,0.8-0.9,1.4-1.4,2.1c-0.5,0.7-0.9,1.4-1.4,2c-3.7,5.4-7.8,10.7-12.5,15.8c-4.7,5.1-9.9,10.1-15.8,14.6
			c-5.9,4.5-12.7,8.6-19.6,11.5c-3.5,1.5-6.9,2.7-10.1,3.6c-3.2,0.9-6.1,1.7-8.7,2.3c-5.1,1.2-8.9,2.1-12.9,4c-2,1-4,2.2-6,3.7
			c-2,1.5-4,3.1-5.9,5.1c-7.4,8.7-14.3,18.2-21,27.9c-6.7,9.7-13.1,19.8-19.5,29.8C8.2,188.9,1.8,199-5,208.9
			C-11.7,218.8-18.8,228.5-27,237.4z"/>
	</g>
	<path class="st5" d="M190.8-3.1c-31.5,28.7-15.1,62.6-43.4,98c-26.5,33.3-47.8,22.1-91,77.8C30,206.8-3.3,232.4-3.3,249.5
		c0.1,50,133.1,84.9,241,50c129.5-41.8,192.8-234.9,138-306.2C353.9-35.1,294.8-42.3,251-34.3C219.1-28.5,199.3-10.8,190.8-3.1z"/>
	<g class="st6">
		<path class="st3" d="M190.8-3.1c-31.5,28.7-15.1,62.6-43.4,98c-26.5,33.3-47.8,22.1-91,77.8C30,206.8-3.3,232.4-3.3,249.5
			c0.1,50,133.1,84.9,241,50c129.5-41.8,192.8-234.9,138-306.2C353.9-35.1,294.8-42.3,251-34.3C219.1-28.5,199.3-10.8,190.8-3.1z"/>
		<path class="st4" d="M192.8-0.9c-2.1,2-4.2,4.1-6.1,6.3c-1.9,2.2-3.5,4.7-5,7.1c-1.4,2.5-2.7,5.1-3.8,7.8c-1,2.7-1.9,5.5-2.6,8.4
			c-2.8,11.4-3.2,23.6-5.4,36.4c-1.1,6.4-2.7,12.9-5,19.3c-1.1,3.2-2.5,6.4-4,9.5c-0.8,1.5-1.6,3.1-2.4,4.6l-2.6,4.5
			c-3.4,5.9-7.4,11.9-12.2,17.4c-4.7,5.5-10.2,10.4-15.3,14.7l-7.3,6.1c-2.3,1.9-4.4,3.8-6.5,5.6c-4.1,3.6-7.7,7.2-11.2,11
			c-7,7.5-13.6,15.7-20.3,24.4c-1.7,2.1-3.3,4.4-5.1,6.6l-3,3.9c-1,1.3-2.1,2.6-3.2,3.9c-2.1,2.5-4.3,5-6.4,7.5
			c-2.2,2.4-4.4,4.8-6.6,7.1c-8.8,9.2-18,17.6-26.4,25.3c-4.1,3.8-8.1,7.6-11,10.7c-1.5,1.5-2.6,2.9-3.2,3.5c-0.3,0.3-0.5,0.3-0.6,0
			c0-0.1,0-0.2-0.1-0.3c0-0.2-0.1-0.3-0.1-0.5c0-0.1,0-0.3-0.1-0.2l-0.1,0.2c-0.1,0.1-0.1,0.2-0.1,0.3c-0.3,0.8-0.5,1.9-0.4,3.2
			c0.1,1.3,0.5,2.9,1.2,4.5c1.4,3.4,4.2,7.2,7.7,10.8c3.5,3.6,7.7,7,12.3,10.1c4.6,3.1,9.5,5.9,14.7,8.4c10.4,5,21.5,8.8,33,11.6
			c11.5,2.7,23.3,4.4,35.1,5.1c11.8,0.7,23.8,0.6,35.6-0.5c23.6-2.1,46.8-8.1,68-17c2.7-1.1,5.3-2.3,7.9-3.5c2.5-1.2,5-2.4,7.4-3.7
			c4.8-2.6,9.5-5.4,14-8.5c9.1-6,17.5-12.9,25.4-20.3c7.9-7.4,15.4-15.3,22.3-23.7c7-8.3,13.4-17.2,19.3-26.5
			c11.7-18.6,20.9-38.8,27.9-59.5c3.5-10.3,6.5-20.8,8.9-31.3c2.5-10.5,4.2-21,5.4-31.3c1.1-10.3,1.5-20.6,0.9-30.3
			c-0.3-4.9-0.9-9.6-1.7-14.1c-0.8-4.5-1.9-8.8-3.2-12.8c-0.6-2-1.4-3.9-2.1-5.8c-0.4-0.9-0.8-1.8-1.2-2.7l-0.6-1.3l-0.6-1.3
			c-1-2.3-3-5.2-5.9-8c-5.8-5.7-14.7-11.2-24.5-15.5c-9.9-4.4-20.9-7.8-32.2-10.2c-5.7-1.2-11.5-2-17.3-2.6
			c-5.8-0.6-11.7-0.8-17.6-0.7c-1.5,0-2.9,0.1-4.4,0.2c-1.4,0.1-2.9,0.2-4.3,0.3c-2.9,0.3-5.8,0.7-8.6,1.3
			c-5.7,1.2-11.3,2.9-16.8,5.2c-5.4,2.3-10.7,5.1-15.7,8.3c-2.5,1.6-4.9,3.4-7.2,5.2C197.3-4.8,195-2.9,192.8-0.9z M188.7-5.3
			c2.2-2.1,4.6-4.2,6.9-6.2c2.4-2.1,4.8-4,7.3-5.9c5-3.8,10.2-7.3,15.7-10.5c2.7-1.6,5.5-3.1,8.4-4.5c2.9-1.4,5.8-2.8,8.8-4
			c3-1.2,6-2.4,9.1-3.4c1.5-0.5,3.1-1,4.7-1.5l4.6-1.3c6.2-1.7,12.4-3.3,18.8-4.5c6.3-1.3,12.8-2.4,19.3-3.2
			c13.1-1.6,26.5-2.3,40.3-1.1c13.8,1.3,28.3,4.1,43,11.8c7.3,3.9,14.7,9.1,21.2,16.4c2.9,3.2,5.4,6.4,7.8,9.8
			c2.4,3.4,4.5,6.9,6.4,10.4c3.8,7.1,6.7,14.4,9,21.7c2.2,7.3,3.8,14.7,4.9,21.9c2.2,14.6,2.6,28.9,1.6,42.9
			c-1.9,28-8.8,54.6-19,79.6c-5.1,12.5-11.2,24.6-17.9,36.2c-6.7,11.7-14.2,22.9-22.4,33.6c-8.2,10.7-17.1,20.9-26.8,30.4
			c-9.7,9.5-20.3,18.2-31.7,25.7c-11.4,7.6-23.6,13.9-36.3,18.9c-6.4,2.5-12.9,4.6-19.4,6.4c-3.3,0.9-6.6,1.7-9.9,2.4
			c-3.2,0.7-6.4,1.3-9.6,1.8c-25.7,4.5-51.2,5.7-76.4,5.4c-25.2-0.3-50.2-2.5-75.1-6.5c-12.5-2-25-4.5-37.5-8
			c-6.3-1.8-12.6-3.8-18.9-6.2c-6.3-2.4-12.6-5.4-18.9-9.1c-6.2-3.8-12.5-8.4-18.2-15c-2.8-3.3-5.5-7.1-7.6-11.5
			c-2.1-4.4-3.8-9.4-4.5-14.6c-0.1-0.7-0.2-1.3-0.2-2l-0.1-1c0-0.4,0-0.9,0-1.4c0-1,0-1.9,0.1-2.8c0.1-0.9,0.1-1.8,0.3-2.6
			c0.4-3.4,1.2-6.2,2.1-8.8c1.7-5.1,3.7-8.9,5.7-12.4c2-3.5,4-6.6,6-9.5c2-2.9,4-5.7,6-8.3c7.9-10.5,15.8-19.6,23.3-28.5l5.5-6.6
			l5.4-6.5l5.3-6.6c2.1-2.6,4.2-5.2,6.4-7.7c8.8-10.1,19.2-19.7,31.1-27.6c6-3.9,12.3-7.4,18.6-10.3c3.2-1.4,6.2-2.7,9.2-3.8
			l8.6-3.2c2.7-1,5.3-1.9,7.7-2.9c2.5-1,4.8-2,7.1-3.2c4.6-2.3,9.1-5.3,13.4-8.8c4.1-3.6,7.8-7.5,11-12c1.6-2.2,3-4.6,4.4-7.1
			c1.3-2.5,2.6-5,3.7-7.8c1.1-2.7,2.1-5.4,3.1-8.3c1-2.8,1.8-5.7,2.7-8.7c1.7-5.9,3.4-11.9,5.6-17.9c2.1-6,4.9-11.9,8.4-17.2
			c1.8-2.7,3.6-5.3,5.8-7.7C184.2-0.9,186.4-3.2,188.7-5.3z"/>
	</g>
</g>
<g>
	<path class="st7" d="M42.9,152.3l11.7-1.4c4.1-0.6,4.9-0.6,4.9-2.7c0.2-3.5,0.4-6.4,0.4-13V38.9c-5.6,0-11.1,0-16.9,0.4v-8.4
		c10.3-0.8,22.7-1.2,33.8-1.2c21.6,0,31.5,1,40.4,4.9c8.4,3.5,13.6,11.9,13.6,21.4c0,13.6-8.4,23.7-27.6,32.9
		c24.3,5.4,34.4,15.2,34.4,33.2c0,23.5-19.2,38.5-48.4,38.5c-8.4,0-16.5-1-24.3-1c-7.2,0-14.2,0.4-22,1
		C42.9,160.6,42.9,152.3,42.9,152.3z M80.8,84c16.7,0,32.7-5.6,32.7-24.3c0-18.1-16.3-20.8-36.5-20.8V84H80.8z M90.5,150.7
		c19.4,0,29.9-8.9,29.9-25.9c0-24.7-23.3-30.1-43.2-31.7v41.2C77.1,148.6,78.5,150.7,90.5,150.7z"/>
</g>
</svg>
