<?xml version="1.0" encoding="utf-8"?>
<!-- Generator: Adobe Illustrator 23.0.3, SVG Export Plug-In . SVG Version: 6.00 Build 0)  -->
<svg version="1.1" id="Laag_1" xmlns="http://www.w3.org/2000/svg" xmlns:xlink="http://www.w3.org/1999/xlink" x="0px" y="0px"
	 viewBox="0 0 140.67 193.96" style="enable-background:new 0 0 140.67 193.96;" xml:space="preserve">
<style type="text/css">
	.st0{fill:#EBF2FA;}
</style>
<g>
	<path class="st0" d="M1.57,180.21l17.1-2.1c6-0.9,7.2-0.9,7.2-3.9c0.3-5.1,0.6-9.3,0.6-18.9V14.91c-8.1,0-16.2,0-24.6,0.6V3.21
		c15-1.2,33-1.8,49.2-1.8c31.5,0,45.9,1.5,58.8,7.2c12.3,5.1,19.8,17.4,19.8,31.2c0,19.8-12.3,34.5-40.2,48
		c35.4,7.8,50.1,22.2,50.1,48.3c0,34.2-27.9,56.1-70.5,56.1c-12.3,0-24-1.5-35.4-1.5c-10.5,0-20.7,0.6-32.1,1.5V180.21z
		 M56.77,80.61c24.3,0,47.7-8.1,47.7-35.4c0-26.4-23.7-30.3-53.1-30.3v65.7H56.77z M70.87,177.81c28.2,0,43.5-12.9,43.5-37.8
		c0-36-33.9-43.8-63-46.2v60C51.37,174.81,53.47,177.81,70.87,177.81z"/>
</g>
</svg>
